<?xml version="1.0" encoding="UTF-8"?>
<!DOCTYPE svg PUBLIC "-//W3C//DTD SVG 1.1//EN" "http://www.w3.org/Graphics/SVG/1.1/DTD/svg11.dtd">
<!-- Creator: CorelDRAW 2020 (64-Bit) -->
<svg xmlns="http://www.w3.org/2000/svg" xml:space="preserve" width="254mm" height="338.667mm" version="1.1" style="shape-rendering:geometricPrecision; text-rendering:geometricPrecision; image-rendering:optimizeQuality; fill-rule:evenodd; clip-rule:evenodd"
viewBox="0 0 25399.98 33866.65"
 xmlns:xlink="http://www.w3.org/1999/xlink"
 xmlns:xodm="http://www.corel.com/coreldraw/odm/2003">
 <defs>
  <style type="text/css">
   <![CDATA[
    .fil1 {fill:none}
    .fil0 {fill:#969290}
   ]]>
  </style>
    <clipPath id="id0">
     <path d="M6066.71 3498.62l17669.23 0 0 29928.97 -17669.23 0 0 -29928.97z"/>
    </clipPath>
   <clipPath id="id1">
    <path d="M5604.93 3031.06l17322.79 0 0 29582.53 -17322.79 0 0 -29582.53z"/>
   </clipPath>
    <clipPath id="id2">
     <path d="M5604.93 3031.06l17322.79 0 0 29582.53 -17322.79 0 0 -29582.53z"/>
    </clipPath>
    <clipPath id="id3">
     <path d="M5604.93 3031.06l17322.79 0 0 29582.53 -17322.79 0 0 -29582.53z"/>
    </clipPath>
    <clipPath id="id4">
     <path d="M2934.05 1778.46l17669.23 0 0 29928.97 -17669.23 0 0 -29928.97z"/>
    </clipPath>
   <clipPath id="id5">
    <path d="M2472.27 1253.06l17322.79 0 0 29582.53 -17322.79 0 0 -29582.53z"/>
   </clipPath>
    <clipPath id="id6">
     <path d="M2472.27 1253.06l17311.23 0 0 29582.53 -17311.23 0 0 -29582.53z"/>
    </clipPath>
    <clipPath id="id7">
     <path d="M2472.27 1253.06l17322.79 0 0 29582.53 -17322.79 0 0 -29582.53z"/>
    </clipPath>
 </defs>
 <g id="Layer_x0020_1">
  <metadata id="CorelCorpID_0Corel-Layer"/>
  <rect class="fil0" x="-0" width="25399.98" height="33866.65"/>
  <g id="_3007851629920">
   <g style="clip-path:url(#id0)">
    <image x="6066.71" y="3498.62" width="17669.23" height="29928.97" xlink:href="Layout Web 6_Images\Layout Web 6_ImgID1.png"/>
   </g>
  </g>
  <g>
  </g>
  <g style="clip-path:url(#id1)">
   <g>
   </g>
   <g style="clip-path:url(#id2)">
    <image id="Screenshot_x0020_2022-04-10_x0020_at_x0020_13-20-35_x0020_Master_x0020_Page_x0020_8_x0020__x2013__x0020_Premium_x0020_Elementor_x0020_Layout.png" x="5563.29" y="-67927.2" width="17406.07" height="100746.27" xlink:href="Layout Web 6_Images\Layout Web 6_ImgID2.png"/>
   </g>
   <g style="clip-path:url(#id3)">
   </g>
  </g>
  <polygon class="fil1" points="5604.93,3031.06 22927.72,3031.06 22927.72,32613.59 5604.93,32613.59 "/>
  <g>
   <g style="clip-path:url(#id4)">
    <image x="2934.05" y="1778.46" width="17669.23" height="29928.97" xlink:href="Layout Web 6_Images\Layout Web 6_ImgID3.png"/>
   </g>
  </g>
  <g>
  </g>
  <g style="clip-path:url(#id5)">
   <g>
   </g>
   <g style="clip-path:url(#id6)">
    <image id="Screenshot_x0020_2022-04-10_x0020_at_x0020_13-20-35_x0020_Master_x0020_Page_x0020_8_x0020__x2013__x0020_Premium_x0020_Elementor_x0020_Layout.png_0" x="2377.42" y="1050.39" width="17406.07" height="100746.27" xlink:href="Layout Web 6_Images\Layout Web 6_ImgID4.png"/>
   </g>
   <g style="clip-path:url(#id7)">
   </g>
  </g>
  <polygon class="fil1" points="2472.27,1253.06 19795.06,1253.06 19795.06,30835.59 2472.27,30835.59 "/>
 </g>
</svg>
